<svg width="343" height="34" viewBox="0 0 343 34" fill="none" xmlns="http://www.w3.org/2000/svg">
<path d="M0.0560001 32.232V33H10.712V32.232H5.048L8.072 22.968H17.72L20.84 32.232H15.896V33H29.96V32.232H25.784L15.272 0.311997H14.696L4.184 32.232H0.0560001ZM12.872 8.472L17.48 22.2H8.36L12.872 8.472ZM48.8304 32.232V33H57.8544V32.232H53.7264V2.904L72.3024 33.384H73.9344V1.512H78.0624V0.743998H69.0384V1.512H73.1664V25.08L58.2864 0.743998H48.8304V1.512H52.9584V32.232H48.8304ZM95.0154 32.232V33H105.671V32.232H100.007L103.031 22.968H112.679L115.799 32.232H110.855V33H124.919V32.232H120.743L110.231 0.311997H109.655L99.1434 32.232H95.0154ZM107.831 8.472L112.439 22.2H103.319L107.831 8.472ZM163.345 0.407999L161.953 2.184C161.377 1.864 160.833 1.576 160.321 1.32C159.809 1.064 159.281 0.855998 158.737 0.695998C158.225 0.535998 157.665 0.423999 157.057 0.36C156.481 0.263999 155.809 0.215999 155.041 0.215999C153.473 0.215999 152.065 0.471998 150.817 0.983997C149.601 1.496 148.561 2.184 147.697 3.048C146.833 3.912 146.177 4.904 145.729 6.024C145.281 7.144 145.057 8.328 145.057 9.576C145.057 11.272 145.569 12.824 146.593 14.232C147.649 15.64 149.281 16.712 151.489 17.448C152.545 17.8 153.441 18.088 154.177 18.312C154.913 18.536 155.601 18.76 156.241 18.984C156.881 19.176 157.521 19.4 158.161 19.656C158.833 19.88 159.601 20.2 160.465 20.616C161.553 21.128 162.289 21.848 162.673 22.776C163.057 23.672 163.249 24.584 163.249 25.512C163.249 26.664 163.025 27.72 162.577 28.68C162.129 29.608 161.537 30.392 160.801 31.032C160.065 31.672 159.217 32.168 158.257 32.52C157.297 32.872 156.321 33.048 155.329 33.048C154.177 33.048 153.073 32.856 152.017 32.472C150.961 32.056 149.985 31.48 149.089 30.744C148.193 30.008 147.409 29.096 146.737 28.008C146.097 26.92 145.601 25.704 145.249 24.36C145.153 23.944 144.977 23.736 144.721 23.736C144.497 23.736 144.385 23.96 144.385 24.408V33C144.385 33.416 144.529 33.624 144.817 33.624C145.009 33.624 145.217 33.464 145.441 33.144L147.169 30.648C147.553 31 148.017 31.368 148.561 31.752C149.137 32.136 149.761 32.488 150.433 32.808C151.137 33.128 151.873 33.384 152.641 33.576C153.441 33.8 154.257 33.912 155.089 33.912C156.625 33.912 158.049 33.624 159.361 33.048C160.673 32.504 161.809 31.736 162.769 30.744C163.729 29.752 164.481 28.584 165.025 27.24C165.601 25.864 165.889 24.392 165.889 22.824C165.889 20.68 165.377 18.872 164.353 17.4C163.361 15.896 161.777 14.824 159.601 14.184C158.865 13.96 158.177 13.768 157.537 13.608C156.897 13.448 156.241 13.272 155.569 13.08C154.897 12.888 154.193 12.68 153.457 12.456C152.721 12.2 151.905 11.896 151.009 11.544C150.017 11.16 149.265 10.568 148.753 9.768C148.241 8.968 147.985 8.04 147.985 6.984C147.985 5.992 148.193 5.128 148.609 4.392C149.025 3.624 149.553 3 150.193 2.52C150.865 2.04 151.617 1.688 152.449 1.464C153.313 1.208 154.177 1.08 155.041 1.08C156.353 1.08 157.505 1.304 158.497 1.752C159.489 2.2 160.321 2.792 160.993 3.528C161.665 4.264 162.193 5.112 162.577 6.072C162.993 7.032 163.265 8.024 163.393 9.048C163.425 9.368 163.569 9.528 163.825 9.528C164.049 9.528 164.161 9.368 164.161 9.048V0.503998C164.161 0.183998 164.065 0.0239983 163.873 0.0239983C163.713 0.0239983 163.537 0.151999 163.345 0.407999ZM201.312 33.912C203.36 33.912 205.28 33.448 207.072 32.52C208.896 31.56 210.48 30.296 211.824 28.728C213.168 27.16 214.224 25.368 214.992 23.352C215.792 21.304 216.192 19.192 216.192 17.016C216.192 14.84 215.792 12.744 214.992 10.728C214.224 8.68 213.168 6.888 211.824 5.352C210.48 3.784 208.896 2.536 207.072 1.608C205.28 0.679998 203.36 0.215999 201.312 0.215999C199.264 0.215999 197.328 0.679998 195.504 1.608C193.712 2.536 192.144 3.784 190.8 5.352C189.456 6.888 188.384 8.68 187.584 10.728C186.816 12.744 186.432 14.84 186.432 17.016C186.432 19.192 186.816 21.304 187.584 23.352C188.384 25.368 189.456 27.16 190.8 28.728C192.144 30.296 193.712 31.56 195.504 32.52C197.328 33.448 199.264 33.912 201.312 33.912ZM201.312 1.08C202.752 1.08 204.032 1.304 205.152 1.752C206.272 2.2 207.2 2.952 207.936 4.008C208.704 5.064 209.28 6.456 209.664 8.184C210.08 9.912 210.288 12.056 210.288 14.616V19.416C210.288 24.056 209.52 27.496 207.984 29.736C206.448 31.944 204.224 33.048 201.312 33.048C198.4 33.048 196.176 31.944 194.64 29.736C193.104 27.496 192.336 24.056 192.336 19.416V14.616C192.336 12.12 192.528 10.024 192.912 8.328C193.328 6.6 193.904 5.208 194.64 4.152C195.408 3.064 196.352 2.28 197.472 1.8C198.592 1.32 199.872 1.08 201.312 1.08ZM236.276 1.512H240.404V32.232H236.372V33H249.188V32.232H245.06V16.392H248.852C249.556 16.392 250.116 16.504 250.532 16.728C250.948 16.92 251.268 17.208 251.492 17.592C251.748 17.976 251.94 18.44 252.068 18.984C252.196 19.528 252.324 20.136 252.452 20.808C252.548 21.256 252.676 21.48 252.836 21.48C253.028 21.48 253.124 21.272 253.124 20.856V11.112C253.124 10.728 253.028 10.536 252.836 10.536C252.676 10.536 252.548 10.76 252.452 11.208C252.324 11.88 252.196 12.488 252.068 13.032C251.94 13.576 251.748 14.04 251.492 14.424C251.268 14.808 250.948 15.112 250.532 15.336C250.116 15.528 249.556 15.624 248.852 15.624H245.06V1.512H252.356C253.444 1.512 254.356 1.784 255.092 2.328C255.828 2.84 256.42 3.496 256.868 4.296C257.316 5.064 257.636 5.896 257.828 6.792C258.052 7.656 258.18 8.44 258.212 9.144C258.212 9.592 258.34 9.816 258.596 9.816C258.82 9.816 258.932 9.608 258.932 9.192V1.896C258.932 1.128 258.532 0.743998 257.732 0.743998H236.276V1.512ZM292.573 1.512V0.743998H279.661V1.512H283.789V32.232H279.661V33H292.573V32.232H288.445V1.512H292.573ZM312.515 32.232V33H323.171V32.232H317.507L320.531 22.968H330.179L333.299 32.232H328.355V33H342.419V32.232H338.243L327.731 0.311997H327.155L316.643 32.232H312.515ZM325.331 8.472L329.939 22.2H320.819L325.331 8.472Z" fill="black"/>
</svg>
