<svg width="343" height="34" viewBox="0 0 343 34" fill="none" xmlns="http://www.w3.org/2000/svg">
<path d="M0.0560001 32.232V33H10.712V32.232H5.048L8.072 22.968H17.72L20.84 32.232H15.896V33H29.96V32.232H25.784L15.272 0.311997H14.696L4.184 32.232H0.0560001ZM12.872 8.472L17.48 22.2H8.36L12.872 8.472ZM48.8304 32.232V33H57.8544V32.232H53.7264V2.904L72.3024 33.384H73.9344V1.512H78.0624V0.743998H69.0384V1.512H73.1664V25.08L58.2864 0.743998H48.8304V1.512H52.9584V32.232H48.8304ZM95.0154 32.232V33H105.671V32.232H100.007L103.031 22.968H112.679L115.799 32.232H110.855V33H124.919V32.232H120.743L110.231 0.311997H109.655L99.1434 32.232H95.0154ZM107.831 8.472L112.439 22.2H103.319L107.831 8.472ZM163.345 0.407999L161.953 2.184C161.377 1.864 160.833 1.576 160.321 1.32C159.809 1.064 159.281 0.855998 158.737 0.695998C158.225 0.535998 157.665 0.423999 157.057 0.36C156.481 0.263999 155.809 0.215999 155.041 0.215999C153.473 0.215999 152.065 0.471998 150.817 0.983997C149.601 1.496 148.561 2.184 147.697 3.048C146.833 3.912 146.177 4.904 145.729 6.024C145.281 7.144 145.057 8.328 145.057 9.576C145.057 11.272 145.569 12.824 146.593 14.232C147.649 15.64 149.281 16.712 151.489 17.448C152.545 17.8 153.441 18.088 154.177 18.312C154.913 18.536 155.601 18.76 156.241 18.984C156.881 19.176 157.521 19.4 158.161 19.656C158.833 19.88 159.601 20.2 160.465 20.616C161.553 21.128 162.289 21.848 162.673 22.776C163.057 23.672 163.249 24.584 163.249 25.512C163.249 26.664 163.025 27.72 162.577 28.68C162.129 29.608 161.537 30.392 160.801 31.032C160.065 31.672 159.217 32.168 158.257 32.52C157.297 32.872 156.321 33.048 155.329 33.048C154.177 33.048 153.073 32.856 152.017 32.472C150.961 32.056 149.985 31.48 149.089 30.744C148.193 30.008 147.409 29.096 146.737 28.008C146.097 26.92 145.601 25.704 145.249 24.36C145.153 23.944 144.977 23.736 144.721 23.736C144.497 23.736 144.385 23.96 144.385 24.408V33C144.385 33.416 144.529 33.624 144.817 33.624C145.009 33.624 145.217 33.464 145.441 33.144L147.169 30.648C147.553 31 148.017 31.368 148.561 31.752C149.137 32.136 149.761 32.488 150.433 32.808C151.137 33.128 151.873 33.384 152.641 33.576C153.441 33.8 154.257 33.912 155.089 33.912C156.625 33.912 158.049 33.624 159.361 33.048C160.673 32.504 161.809 31.736 162.769 30.744C163.729 29.752 164.481 28.584 165.025 27.24C165.601 25.864 165.889 24.392 165.889 22.824C165.889 20.68 165.377 18.872 164.353 17.4C163.361 15.896 161.777 14.824 159.601 14.184C158.865 13.96 158.177 13.768 157.537 13.608C156.897 13.448 156.241 13.272 155.569 13.08C154.897 12.888 154.193 12.68 153.457 12.456C152.721 12.2 151.905 11.896 151.009 11.544C150.017 11.16 149.265 10.568 148.753 9.768C148.241 8.968 147.985 8.04 147.985 6.984C147.985 5.992 148.193 5.128 148.609 4.392C149.025 3.624 149.553 3 150.193 2.52C150.865 2.04 151.617 1.688 152.449 1.464C153.313 1.208 154.177 1.08 155.041 1.08C156.353 1.08 157.505 1.304 158.497 1.752C159.489 2.2 160.321 2.792 160.993 3.528C161.665 4.264 162.193 5.112 162.577 6.072C162.993 7.032 163.265 8.024 163.393 9.048C163.425 9.368 163.569 9.528 163.825 9.528C164.049 9.528 164.161 9.368 164.161 9.048V0.503998C164.161 0.183998 164.065 0.0239983 163.873 0.0239983C163.713 0.0239983 163.537 0.151999 163.345 0.407999ZM201.312 33.912C203.36 33.912 205.28 33.448 207.072 32.52C208.896 31.56 210.48 30.296 211.824 28.728C213.168 27.16 214.224 25.368 214.992 23.352C215.792 21.304 216.192 19.192 216.192 17.016C216.192 14.84 215.792 12.744 214.992 10.728C214.224 8.68 213.168 6.888 211.824 5.352C210.48 3.784 208.896 2.536 207.072 1.608C205.28 0.679998 203.36 0.215999 201.312 0.215999C199.264 0.215999 197.328 0.679998 195.504 1.608C193.712 2.536 192.144 3.784 190.8 5.352C189.456 6.888 188.384 8.68 187.584 10.728C186.816 12.744 186.432 14.84 186.432 17.016C186.432 19.192 186.816 21.304 187.584 23.352C188.384 25.368 189.456 27.16 190.8 28.728C192.144 30.296 193.712 31.56 195.504 32.52C197.328 33.448 199.264 33.912 201.312 33.912ZM201.312 1.08C202.752 1.08 204.032 1.304 205.152 1.752C206.272 2.2 207.2 2.952 207.936 4.008C208.704 5.064 209.28 6.456 209.664 8.184C210.08 9.912 210.288 12.056 210.288 14.616V19.416C210.288 24.056 209.52 27.496 207.984 29.736C206.448 31.944 204.224 33.048 201.312 33.048C198.4 33.048 196.176 31.944 194.64 29.736C193.104 27.496 192.336 24.056 192.336 19.416V14.616C192.336 12.12 192.528 10.024 192.912 8.328C193.328 6.6 193.904 5.208 194.64 4.152C195.408 3.064 196.352 2.28 197.472 1.8C198.592 1.32 199.872 1.08 201.312 1.08ZM236.276 1.512H240.404V32.232H236.372V33H249.188V32.232H245.06V16.392H248.852C249.556 16.392 250.116 16.504 250.532 16.728C250.948 16.92 251.268 17.208 251.492 17.592C251.748 17.976 251.94 18.44 252.068 18.984C252.196 19.528 252.324 20.136 252.452 20.808C252.548 21.256 252.676 21.48 252.836 21.48C253.028 21.48 253.124 21.272 253.124 20.856V11.112C253.124 10.728 253.028 10.536 252.836 10.536C252.676 10.536 252.548 10.76 252.452 11.208C252.324 11.88 252.196 12.488 252.068 13.032C251.94 13.576 251.748 14.04 251.492 14.424C251.268 14.808 250.948 15.112 250.532 15.336C250.116 15.528 249.556 15.624 248.852 15.624H245.06V1.512H252.356C253.444 1.512 254.356 1.784 255.092 2.328C255.828 2.84 256.42 3.496 256.868 4.296C257.316 5.064 257.636 5.896 257.828 6.792C258.052 7.656 258.18 8.44 258.212 9.144C258.212 9.592 258.34 9.816 258.596 9.816C258.82 9.816 258.932 9.608 258.932 9.192V1.896C258.932 1.128 258.532 0.743998 257.732 0.743998H236.276V1.512ZM292.573 1.512V0.743998H279.661V1.512H283.789V32.232H279.661V33H292.573V32.232H288.445V1.512H292.573ZM312.515 32.232V33H323.171V32.232H317.507L320.531 22.968H330.179L333.299 32.232H328.355V33H342.419V32.232H338.243L327.731 0.311997H327.155L316.643 32.232H312.515ZM325.331 8.472L329.939 22.2H320.819L325.331 8.472Z" fill="white"/>
<path d="M0.0560001 32.232V31.232H-0.944V32.232H0.0560001ZM0.0560001 33H-0.944V34H0.0560001V33ZM10.712 33V34H11.712V33H10.712ZM10.712 32.232H11.712V31.232H10.712V32.232ZM5.048 32.232L4.09736 31.9217L3.66965 33.232H5.048V32.232ZM8.072 22.968V21.968H7.3465L7.12137 22.6577L8.072 22.968ZM17.72 22.968L18.6677 22.6488L18.4384 21.968H17.72V22.968ZM20.84 32.232V33.232H22.232L21.7877 31.9128L20.84 32.232ZM15.896 32.232V31.232H14.896V32.232H15.896ZM15.896 33H14.896V34H15.896V33ZM29.96 33V34H30.96V33H29.96ZM29.96 32.232H30.96V31.232H29.96V32.232ZM25.784 32.232L24.8342 32.5448L25.0605 33.232H25.784V32.232ZM15.272 0.311997L16.2218 -0.000800133L15.9955 -0.688003H15.272V0.311997ZM14.696 0.311997V-0.688003H13.9725L13.7462 -0.000800133L14.696 0.311997ZM4.184 32.232V33.232H4.90751L5.13382 32.5448L4.184 32.232ZM12.872 8.472L13.82 8.15378L12.862 5.29972L11.922 8.15976L12.872 8.472ZM17.48 22.2V23.2H18.8705L18.428 21.8818L17.48 22.2ZM8.36 22.2L7.41 21.8878L6.9787 23.2H8.36V22.2ZM-0.944 32.232V33H1.056V32.232H-0.944ZM0.0560001 34H10.712V32H0.0560001V34ZM11.712 33V32.232H9.712V33H11.712ZM10.712 31.232H5.048V33.232H10.712V31.232ZM5.99864 32.5423L9.02264 23.2783L7.12137 22.6577L4.09736 31.9217L5.99864 32.5423ZM8.072 23.968H17.72V21.968H8.072V23.968ZM16.7723 23.2872L19.8923 32.5512L21.7877 31.9128L18.6677 22.6488L16.7723 23.2872ZM20.84 31.232H15.896V33.232H20.84V31.232ZM14.896 32.232V33H16.896V32.232H14.896ZM15.896 34H29.96V32H15.896V34ZM30.96 33V32.232H28.96V33H30.96ZM29.96 31.232H25.784V33.232H29.96V31.232ZM26.7338 31.9192L16.2218 -0.000800133L14.3222 0.624795L24.8342 32.5448L26.7338 31.9192ZM15.272 -0.688003H14.696V1.312H15.272V-0.688003ZM13.7462 -0.000800133L3.23418 31.9192L5.13382 32.5448L15.6458 0.624795L13.7462 -0.000800133ZM4.184 31.232H0.0560001V33.232H4.184V31.232ZM11.924 8.79021L16.532 22.5182L18.428 21.8818L13.82 8.15378L11.924 8.79021ZM17.48 21.2H8.36V23.2H17.48V21.2ZM9.31 22.5122L13.822 8.78424L11.922 8.15976L7.41 21.8878L9.31 22.5122ZM48.8304 32.232V31.232H47.8304V32.232H48.8304ZM48.8304 33H47.8304V34H48.8304V33ZM57.8544 33V34H58.8544V33H57.8544ZM57.8544 32.232H58.8544V31.232H57.8544V32.232ZM53.7264 32.232H52.7264V33.232H53.7264V32.232ZM53.7264 2.904L54.5803 2.38358L52.7264 -0.658368V2.904H53.7264ZM72.3024 33.384L71.4485 33.9044L71.7407 34.384H72.3024V33.384ZM73.9344 33.384V34.384H74.9344V33.384H73.9344ZM73.9344 1.512V0.511999H72.9344V1.512H73.9344ZM78.0624 1.512V2.512H79.0624V1.512H78.0624ZM78.0624 0.743998H79.0624V-0.256002H78.0624V0.743998ZM69.0384 0.743998V-0.256002H68.0384V0.743998H69.0384ZM69.0384 1.512H68.0384V2.512H69.0384V1.512ZM73.1664 1.512H74.1664V0.511999H73.1664V1.512ZM73.1664 25.08L72.3132 25.6017L74.1664 28.6325V25.08H73.1664ZM58.2864 0.743998L59.1395 0.222343L58.8471 -0.256002H58.2864V0.743998ZM48.8304 0.743998V-0.256002H47.8304V0.743998H48.8304ZM48.8304 1.512H47.8304V2.512H48.8304V1.512ZM52.9584 1.512H53.9584V0.511999H52.9584V1.512ZM52.9584 32.232V33.232H53.9584V32.232H52.9584ZM47.8304 32.232V33H49.8304V32.232H47.8304ZM48.8304 34H57.8544V32H48.8304V34ZM58.8544 33V32.232H56.8544V33H58.8544ZM57.8544 31.232H53.7264V33.232H57.8544V31.232ZM54.7264 32.232V2.904H52.7264V32.232H54.7264ZM52.8725 3.42441L71.4485 33.9044L73.1563 32.8636L54.5803 2.38358L52.8725 3.42441ZM72.3024 34.384H73.9344V32.384H72.3024V34.384ZM74.9344 33.384V1.512H72.9344V33.384H74.9344ZM73.9344 2.512H78.0624V0.511999H73.9344V2.512ZM79.0624 1.512V0.743998H77.0624V1.512H79.0624ZM78.0624 -0.256002H69.0384V1.744H78.0624V-0.256002ZM68.0384 0.743998V1.512H70.0384V0.743998H68.0384ZM69.0384 2.512H73.1664V0.511999H69.0384V2.512ZM72.1664 1.512V25.08H74.1664V1.512H72.1664ZM74.0195 24.5583L59.1395 0.222343L57.4332 1.26565L72.3132 25.6017L74.0195 24.5583ZM58.2864 -0.256002H48.8304V1.744H58.2864V-0.256002ZM47.8304 0.743998V1.512H49.8304V0.743998H47.8304ZM48.8304 2.512H52.9584V0.511999H48.8304V2.512ZM51.9584 1.512V32.232H53.9584V1.512H51.9584ZM52.9584 31.232H48.8304V33.232H52.9584V31.232ZM95.0154 32.232V31.232H94.0154V32.232H95.0154ZM95.0154 33H94.0154V34H95.0154V33ZM105.671 33V34H106.671V33H105.671ZM105.671 32.232H106.671V31.232H105.671V32.232ZM100.007 32.232L99.0567 31.9217L98.629 33.232H100.007V32.232ZM103.031 22.968V21.968H102.306L102.081 22.6577L103.031 22.968ZM112.679 22.968L113.627 22.6488L113.398 21.968H112.679V22.968ZM115.799 32.232V33.232H117.191L116.747 31.9128L115.799 32.232ZM110.855 32.232V31.232H109.855V32.232H110.855ZM110.855 33H109.855V34H110.855V33ZM124.919 33V34H125.919V33H124.919ZM124.919 32.232H125.919V31.232H124.919V32.232ZM120.743 32.232L119.794 32.5448L120.02 33.232H120.743V32.232ZM110.231 0.311997L111.181 -0.000800133L110.955 -0.688003H110.231V0.311997ZM109.655 0.311997V-0.688003H108.932L108.706 -0.000800133L109.655 0.311997ZM99.1434 32.232V33.232H99.8669L100.093 32.5448L99.1434 32.232ZM107.831 8.472L108.779 8.15378L107.821 5.29972L106.881 8.15976L107.831 8.472ZM112.439 22.2V23.2H113.83L113.387 21.8818L112.439 22.2ZM103.319 22.2L102.369 21.8878L101.938 23.2H103.319V22.2ZM94.0154 32.232V33H96.0154V32.232H94.0154ZM95.0154 34H105.671V32H95.0154V34ZM106.671 33V32.232H104.671V33H106.671ZM105.671 31.232H100.007V33.232H105.671V31.232ZM100.958 32.5423L103.982 23.2783L102.081 22.6577L99.0567 31.9217L100.958 32.5423ZM103.031 23.968H112.679V21.968H103.031V23.968ZM111.732 23.2872L114.852 32.5512L116.747 31.9128L113.627 22.6488L111.732 23.2872ZM115.799 31.232H110.855V33.232H115.799V31.232ZM109.855 32.232V33H111.855V32.232H109.855ZM110.855 34H124.919V32H110.855V34ZM125.919 33V32.232H123.919V33H125.919ZM124.919 31.232H120.743V33.232H124.919V31.232ZM121.693 31.9192L111.181 -0.000800133L109.282 0.624795L119.794 32.5448L121.693 31.9192ZM110.231 -0.688003H109.655V1.312H110.231V-0.688003ZM108.706 -0.000800133L98.1936 31.9192L100.093 32.5448L110.605 0.624795L108.706 -0.000800133ZM99.1434 31.232H95.0154V33.232H99.1434V31.232ZM106.883 8.79021L111.491 22.5182L113.387 21.8818L108.779 8.15378L106.883 8.79021ZM112.439 21.2H103.319V23.2H112.439V21.2ZM104.269 22.5122L108.781 8.78424L106.881 8.15976L102.369 21.8878L104.269 22.5122ZM163.345 0.407999L164.132 1.02488L164.138 1.01651L164.145 1.008L163.345 0.407999ZM161.953 2.184L161.467 3.05816L162.213 3.47268L162.74 2.80088L161.953 2.184ZM158.737 0.695998L158.439 1.65048L158.447 1.65299L158.455 1.65536L158.737 0.695998ZM157.057 0.36L156.892 1.34639L156.922 1.35135L156.952 1.35451L157.057 0.36ZM150.817 0.983997L150.437 0.0587893L150.429 0.0623627L150.817 0.983997ZM147.697 3.048L146.99 2.34089L147.697 3.048ZM145.729 6.024L144.8 5.65261L145.729 6.024ZM146.593 14.232L145.784 14.8202L145.788 14.8261L145.793 14.832L146.593 14.232ZM151.489 17.448L151.173 18.3967L151.489 17.448ZM156.241 18.984L155.911 19.9279L155.932 19.9353L155.954 19.9418L156.241 18.984ZM158.161 19.656L157.789 20.5845L157.817 20.5954L157.845 20.6047L158.161 19.656ZM160.465 20.616L160.031 21.517L160.039 21.5208L160.465 20.616ZM162.673 22.776L161.749 23.1584L161.754 23.1699L162.673 22.776ZM162.577 28.68L163.477 29.1148L163.483 29.1029L162.577 28.68ZM160.801 31.032L161.457 31.7866L160.801 31.032ZM158.257 32.52L158.601 33.4589L158.257 32.52ZM152.017 32.472L151.65 33.4024L151.663 33.4073L151.675 33.4118L152.017 32.472ZM149.089 30.744L149.724 29.9713L149.089 30.744ZM146.737 28.008L145.875 28.515L145.88 28.5243L145.886 28.5335L146.737 28.008ZM145.249 24.36L144.274 24.5849L144.278 24.5992L144.281 24.6134L145.249 24.36ZM145.441 33.144L146.26 33.7175L146.263 33.7132L145.441 33.144ZM147.169 30.648L147.845 29.9108L146.999 29.136L146.347 30.0788L147.169 30.648ZM148.561 31.752L147.984 32.569L147.995 32.5767L148.006 32.584L148.561 31.752ZM150.433 32.808L150.003 33.7109L150.011 33.7147L150.019 33.7184L150.433 32.808ZM152.641 33.576L152.91 32.613L152.897 32.6093L152.883 32.6059L152.641 33.576ZM159.361 33.048L158.978 32.1243L158.968 32.1282L158.959 32.1324L159.361 33.048ZM162.769 30.744L162.05 30.0486L162.769 30.744ZM165.025 27.24L164.102 26.8538L164.098 26.8648L165.025 27.24ZM164.353 17.4L163.518 17.9506L163.525 17.9609L163.532 17.9711L164.353 17.4ZM159.601 14.184L159.31 15.1407L159.319 15.1434L159.601 14.184ZM153.457 12.456L153.128 13.4005L153.147 13.4069L153.166 13.4127L153.457 12.456ZM151.009 11.544L151.375 10.6132L151.37 10.6114L151.009 11.544ZM148.753 9.768L149.595 9.22894L148.753 9.768ZM148.609 4.392L149.479 4.88406L149.484 4.87621L149.488 4.86828L148.609 4.392ZM150.193 2.52L149.612 1.70626L149.602 1.71302L149.593 1.72L150.193 2.52ZM152.449 1.464L152.709 2.42962L152.721 2.42636L152.733 2.4228L152.449 1.464ZM158.497 1.752L158.908 0.840629L158.497 1.752ZM162.577 6.072L161.648 6.44339L161.654 6.45657L161.659 6.4696L162.577 6.072ZM163.393 9.048L164.388 8.9485L164.387 8.93621L164.385 8.92396L163.393 9.048ZM162.558 -0.208882L161.166 1.56712L162.74 2.80088L164.132 1.02488L162.558 -0.208882ZM162.439 1.30984C161.852 0.983831 161.295 0.688928 160.768 0.425571L159.874 2.21443C160.371 2.46307 160.902 2.74417 161.467 3.05816L162.439 1.30984ZM160.768 0.425571C160.204 0.143332 159.62 -0.0864935 159.019 -0.263368L158.455 1.65536C158.941 1.79849 159.414 1.98466 159.874 2.21443L160.768 0.425571ZM159.035 -0.258482C158.452 -0.440692 157.826 -0.564531 157.162 -0.634506L156.952 1.35451C157.503 1.41253 157.998 1.51269 158.439 1.65048L159.035 -0.258482ZM157.221 -0.626394C156.577 -0.73376 155.848 -0.784001 155.041 -0.784001V1.216C155.77 1.216 156.385 1.26176 156.892 1.34639L157.221 -0.626394ZM155.041 -0.784001C153.364 -0.784001 151.824 -0.509933 150.437 0.0588284L151.196 1.90917C152.306 1.45393 153.582 1.216 155.041 1.216V-0.784001ZM150.429 0.0623627C149.103 0.620524 147.952 1.37834 146.99 2.34089L148.404 3.75511C149.169 2.98966 150.099 2.37147 151.205 1.90563L150.429 0.0623627ZM146.99 2.34089C146.031 3.29938 145.299 4.40521 144.8 5.65261L146.657 6.39539C147.054 5.40279 147.634 4.52462 148.404 3.75511L146.99 2.34089ZM144.8 5.65261C144.304 6.89482 144.057 8.20526 144.057 9.576H146.057C146.057 8.45074 146.258 7.39318 146.657 6.39539L144.8 5.65261ZM144.057 9.576C144.057 11.4893 144.639 13.2461 145.784 14.8202L147.402 13.6438C146.498 12.4019 146.057 11.0547 146.057 9.576H144.057ZM145.793 14.832C147.005 16.4478 148.833 17.6168 151.173 18.3967L151.805 16.4993C149.729 15.8072 148.293 14.8322 147.393 13.632L145.793 14.832ZM151.173 18.3967C152.234 18.7504 153.139 19.0413 153.886 19.2687L154.468 17.3553C153.743 17.1347 152.856 16.8496 151.805 16.4993L151.173 18.3967ZM153.886 19.2687C154.61 19.4892 155.285 19.709 155.911 19.9279L156.571 18.0401C155.917 17.811 155.215 17.5828 154.468 17.3553L153.886 19.2687ZM155.954 19.9418C156.564 20.125 157.176 20.3392 157.789 20.5845L158.532 18.7275C157.866 18.4608 157.198 18.227 156.528 18.0262L155.954 19.9418ZM157.845 20.6047C158.465 20.8116 159.193 21.1134 160.031 21.517L160.899 19.715C160.009 19.2866 159.2 18.9484 158.477 18.7073L157.845 20.6047ZM160.039 21.5208C160.949 21.9489 161.478 22.5043 161.749 23.1584L163.597 22.3936C163.1 21.1917 162.157 20.3071 160.891 19.7112L160.039 21.5208ZM161.754 23.1699C162.087 23.9478 162.249 24.7262 162.249 25.512H164.249C164.249 24.4418 164.027 23.3962 163.592 22.3821L161.754 23.1699ZM162.249 25.512C162.249 26.5308 162.052 27.4408 161.671 28.2571L163.483 29.1029C163.998 27.9992 164.249 26.7972 164.249 25.512H162.249ZM161.676 28.2453C161.284 29.0582 160.773 29.7313 160.145 30.2774L161.457 31.7866C162.301 31.0527 162.974 30.1578 163.477 29.1147L161.676 28.2453ZM160.145 30.2774C159.505 30.8337 158.764 31.269 157.913 31.5811L158.601 33.4589C159.67 33.067 160.625 32.5103 161.457 31.7866L160.145 30.2774ZM157.913 31.5811C157.059 31.894 156.2 32.048 155.329 32.048V34.048C156.442 34.048 157.534 33.85 158.601 33.4589L157.913 31.5811ZM155.329 32.048C154.29 32.048 153.302 31.8754 152.359 31.5322L151.675 33.4118C152.843 33.8366 154.063 34.048 155.329 34.048V32.048ZM152.383 31.5416C151.427 31.1647 150.541 30.6425 149.724 29.9713L148.454 31.5167C149.429 32.3175 150.495 32.9473 151.65 33.4024L152.383 31.5416ZM149.724 29.9713C148.921 29.312 148.208 28.4863 147.588 27.4825L145.886 28.5335C146.61 29.7057 147.465 30.704 148.454 31.5167L149.724 29.9713ZM147.599 27.501C147.01 26.4998 146.547 25.3705 146.216 24.1066L144.281 24.6134C144.654 26.0375 145.184 27.3402 145.875 28.515L147.599 27.501ZM146.223 24.1351C146.158 23.8513 146.041 23.5214 145.808 23.2461C145.544 22.934 145.164 22.736 144.721 22.736V24.736C144.645 24.736 144.554 24.7195 144.464 24.676C144.375 24.6333 144.316 24.5785 144.281 24.5379C144.225 24.4706 144.244 24.4527 144.274 24.5849L146.223 24.1351ZM144.721 22.736C144.49 22.736 144.243 22.7966 144.019 22.9459C143.801 23.0911 143.662 23.2822 143.574 23.4568C143.414 23.7777 143.385 24.1329 143.385 24.408H145.385C145.385 24.335 145.39 24.2942 145.392 24.2784C145.395 24.2599 145.393 24.2925 145.363 24.3512C145.332 24.4138 145.262 24.5209 145.129 24.6101C144.989 24.7034 144.84 24.736 144.721 24.736V22.736ZM143.385 24.408V33H145.385V24.408H143.385ZM143.385 33C143.385 33.2925 143.43 33.6894 143.671 34.0372C143.958 34.4516 144.397 34.624 144.817 34.624V32.624C144.865 32.624 144.956 32.633 145.062 32.684C145.172 32.7373 145.258 32.8166 145.315 32.8988C145.412 33.0386 145.385 33.1235 145.385 33H143.385ZM144.817 34.624C145.202 34.624 145.511 34.4624 145.727 34.2966C145.94 34.1323 146.115 33.9242 146.26 33.7175L144.622 32.5705C144.584 32.6238 144.554 32.6608 144.533 32.685C144.51 32.7097 144.501 32.7158 144.507 32.7114C144.515 32.7056 144.624 32.624 144.817 32.624V34.624ZM146.263 33.7132L147.991 31.2172L146.347 30.0788L144.619 32.5748L146.263 33.7132ZM146.493 31.3852C146.916 31.7724 147.415 32.1669 147.984 32.569L149.138 30.935C148.619 30.5691 148.19 30.2276 147.845 29.9108L146.493 31.3852ZM148.006 32.584C148.625 32.9965 149.291 33.3718 150.003 33.7109L150.863 31.9051C150.231 31.6042 149.649 31.2755 149.116 30.9199L148.006 32.584ZM150.019 33.7184C150.78 34.064 151.573 34.3398 152.398 34.5461L152.883 32.6059C152.173 32.4282 151.494 32.192 150.847 31.8976L150.019 33.7184ZM152.371 34.539C153.259 34.7876 154.166 34.912 155.089 34.912V32.912C154.348 32.912 153.623 32.8124 152.91 32.613L152.371 34.539ZM155.089 34.912C156.753 34.912 158.315 34.5992 159.763 33.9636L158.959 32.1324C157.783 32.6488 156.497 32.912 155.089 32.912V34.912ZM159.744 33.9717C161.178 33.3769 162.43 32.5325 163.487 31.4394L162.05 30.0486C161.188 30.9395 160.167 31.6311 158.978 32.1243L159.744 33.9717ZM163.487 31.4394C164.541 30.3505 165.362 29.0722 165.952 27.6152L164.098 26.8648C163.6 28.0958 162.916 29.1535 162.05 30.0486L163.487 31.4394ZM165.947 27.6261C166.577 26.1216 166.889 24.5177 166.889 22.824H164.889C164.889 24.2663 164.625 25.6064 164.102 26.8539L165.947 27.6261ZM166.889 22.824C166.889 20.5166 166.336 18.4992 165.174 16.8289L163.532 17.9711C164.418 19.2448 164.889 20.8434 164.889 22.824H166.889ZM165.188 16.8494C164.035 15.1013 162.225 13.9136 159.883 13.2246L159.319 15.1434C161.328 15.7344 162.687 16.6907 163.518 17.9506L165.188 16.8494ZM159.892 13.2273C159.143 12.9992 158.438 12.8025 157.779 12.6379L157.294 14.5781C157.916 14.7335 158.587 14.9208 159.31 15.1407L159.892 13.2273ZM157.779 12.6379C157.151 12.4807 156.506 12.3076 155.844 12.1185L155.294 14.0415C155.976 14.2364 156.643 14.4153 157.294 14.5781L157.779 12.6379ZM155.844 12.1185C155.178 11.9282 154.479 11.7218 153.748 11.4993L153.166 13.4127C153.907 13.6382 154.616 13.8478 155.294 14.0415L155.844 12.1185ZM153.785 11.5115C153.064 11.2607 152.261 10.9615 151.375 10.6132L150.643 12.4748C151.549 12.8305 152.377 13.1393 153.128 13.4005L153.785 11.5115ZM151.37 10.6114C150.551 10.2945 149.979 9.82873 149.595 9.22894L147.911 10.3071C148.551 11.3073 149.483 12.0255 150.648 12.4766L151.37 10.6114ZM149.595 9.22894C149.197 8.60752 148.985 7.87102 148.985 6.984H146.985C146.985 8.20897 147.284 9.32848 147.911 10.3071L149.595 9.22894ZM148.985 6.984C148.985 6.13436 149.162 5.44576 149.479 4.88406L147.738 3.89994C147.224 4.81023 146.985 5.84964 146.985 6.984H148.985ZM149.488 4.86828C149.842 4.21528 150.278 3.7058 150.793 3.32L149.593 1.72C148.827 2.2942 148.208 3.03271 147.73 3.91572L149.488 4.86828ZM150.774 3.33373C151.345 2.92612 151.987 2.62394 152.709 2.42962L152.189 0.498384C151.247 0.752061 150.385 1.15388 149.612 1.70626L150.774 3.33373ZM152.733 2.4228C153.509 2.19294 154.277 2.08 155.041 2.08V0.079999C154.077 0.079999 153.117 0.223056 152.165 0.505201L152.733 2.4228ZM155.041 2.08C156.24 2.08 157.246 2.28452 158.085 2.66337L158.908 0.840629C157.763 0.323482 156.466 0.079999 155.041 0.079999V2.08ZM158.085 2.66337C158.965 3.06059 159.682 3.57564 160.254 4.20227L161.731 2.85373C160.96 2.00836 160.013 1.33941 158.908 0.840629L158.085 2.66337ZM160.254 4.20227C160.842 4.84623 161.307 5.5907 161.648 6.44339L163.505 5.70061C163.078 4.63329 162.487 3.68177 161.731 2.85373L160.254 4.20227ZM161.659 6.4696C162.038 7.34365 162.285 8.24362 162.401 9.17204L164.385 8.92396C164.245 7.80437 163.948 6.72035 163.494 5.67439L161.659 6.4696ZM162.398 9.1475C162.425 9.41993 162.512 9.77792 162.782 10.077C163.079 10.4076 163.472 10.528 163.825 10.528V8.528C163.865 8.528 163.937 8.53427 164.025 8.56952C164.117 8.60636 164.202 8.66511 164.268 8.73903C164.393 8.87808 164.393 8.99607 164.388 8.9485L162.398 9.1475ZM163.825 10.528C164.208 10.528 164.623 10.3711 164.896 9.98146C165.123 9.65679 165.161 9.294 165.161 9.048H163.161C163.161 9.122 163.142 8.9992 163.258 8.83454C163.324 8.74023 163.42 8.65319 163.542 8.59514C163.659 8.53947 163.762 8.528 163.825 8.528V10.528ZM165.161 9.048V0.503998H163.161V9.048H165.161ZM165.161 0.503998C165.161 0.276641 165.133 -0.0601244 164.946 -0.370499C164.711 -0.762258 164.308 -0.976002 163.873 -0.976002V1.024C163.779 1.024 163.649 1.00343 163.513 0.928156C163.376 0.85214 163.285 0.748591 163.231 0.658495C163.141 0.508121 163.161 0.411355 163.161 0.503998H165.161ZM163.873 -0.976002C163.517 -0.976002 163.231 -0.833056 163.033 -0.688737C162.836 -0.545567 162.675 -0.365935 162.545 -0.191999L164.145 1.008C164.206 0.925933 164.23 0.913564 164.209 0.928734C164.187 0.945053 164.068 1.024 163.873 1.024V-0.976002ZM207.072 32.52L207.532 33.408L207.538 33.4049L207.072 32.52ZM211.824 28.728L212.584 29.3788L211.824 28.728ZM214.992 23.352L214.061 22.9881L214.058 22.996L214.992 23.352ZM214.992 10.728L214.056 11.0791L214.06 11.088L214.063 11.0968L214.992 10.728ZM211.824 5.352L211.065 6.00282L211.072 6.0105L211.824 5.352ZM207.072 1.608L206.613 2.49602L206.619 2.49928L207.072 1.608ZM195.505 1.608L195.051 0.716697L195.045 0.720004L195.505 1.608ZM190.8 5.352L191.553 6.01054L191.56 6.00279L190.8 5.352ZM187.585 10.728L186.653 10.3641L186.65 10.372L187.585 10.728ZM187.585 23.352L186.648 23.7031L186.652 23.712L186.655 23.7208L187.585 23.352ZM190.8 28.728L191.56 28.0772L190.8 28.728ZM195.505 32.52L195.032 33.4015L195.042 33.4065L195.051 33.4113L195.505 32.52ZM205.152 1.752L204.781 2.68048L205.152 1.752ZM207.936 4.008L207.116 4.57979L207.122 4.58804L207.128 4.59617L207.936 4.008ZM209.665 8.184L208.688 8.40093L208.69 8.40951L208.692 8.41805L209.665 8.184ZM207.984 29.736L208.805 30.3071L208.809 30.3015L207.984 29.736ZM194.641 29.736L193.816 30.3015L193.82 30.3071L194.641 29.736ZM192.912 8.328L191.94 8.09393L191.937 8.10717L192.912 8.328ZM194.641 4.152L193.824 3.57531L193.82 3.58021L194.641 4.152ZM201.312 34.912C203.518 34.912 205.596 34.4107 207.532 33.408L206.613 31.632C204.965 32.4853 203.203 32.912 201.312 32.912V34.912ZM207.538 33.4049C209.474 32.386 211.158 31.0425 212.584 29.3788L211.065 28.0772C209.803 29.5495 208.319 30.734 206.607 31.6351L207.538 33.4049ZM212.584 29.3788C214.006 27.7195 215.12 25.8268 215.927 23.708L214.058 22.996C213.329 24.9092 212.331 26.6005 211.065 28.0772L212.584 29.3788ZM215.924 23.7159C216.769 21.5531 217.193 19.3178 217.193 17.016H215.193C215.193 19.0662 214.816 21.0549 214.061 22.9881L215.924 23.7159ZM217.193 17.016C217.193 14.7141 216.769 12.4929 215.922 10.3592L214.063 11.0968C214.816 12.9951 215.193 14.9659 215.193 17.016H217.193ZM215.929 10.3769C215.122 8.22432 214.006 6.32637 212.577 4.69349L211.072 6.0105C212.331 7.44963 213.327 9.13568 214.056 11.0791L215.929 10.3769ZM212.584 4.70121C211.155 3.03473 209.468 1.70465 207.526 0.716721L206.619 2.49928C208.325 3.36735 209.806 4.53327 211.065 6.00279L212.584 4.70121ZM207.532 0.720003C205.596 -0.28272 203.518 -0.784001 201.312 -0.784001V1.216C203.203 1.216 204.965 1.64272 206.613 2.49599L207.532 0.720003ZM201.312 -0.784001C199.107 -0.784001 197.016 -0.282803 195.051 0.71672L195.958 2.49928C197.641 1.6428 199.422 1.216 201.312 1.216V-0.784001ZM195.045 0.720004C193.136 1.7085 191.467 3.03797 190.041 4.70121L191.56 6.00279C192.822 4.53003 194.289 3.3635 195.964 2.49599L195.045 0.720004ZM190.048 4.69349C188.622 6.32313 187.492 8.21668 186.653 10.3641L188.516 11.0919C189.277 9.14332 190.291 7.45287 191.553 6.0105L190.048 4.69349ZM186.65 10.372C185.838 12.5027 185.432 14.7194 185.432 17.016H187.432C187.432 14.9606 187.795 12.9853 188.519 11.084L186.65 10.372ZM185.432 17.016C185.432 19.3125 185.838 21.5434 186.648 23.7031L188.521 23.0009C187.795 21.0646 187.432 19.0715 187.432 17.016H185.432ZM186.655 23.7208C187.494 25.8344 188.622 27.7227 190.041 29.3788L191.56 28.0772C190.291 26.5973 189.275 24.9016 188.514 22.9832L186.655 23.7208ZM190.041 29.3788C191.465 31.0393 193.129 32.3821 195.032 33.4015L195.977 31.6385C194.296 30.7379 192.824 29.5527 191.56 28.0772L190.041 29.3788ZM195.051 33.4113C197.016 34.4108 199.107 34.912 201.312 34.912V32.912C199.422 32.912 197.641 32.4852 195.958 31.6287L195.051 33.4113ZM201.312 2.08C202.649 2.08 203.8 2.28792 204.781 2.68048L205.524 0.823523C204.265 0.320077 202.856 0.079999 201.312 0.079999V2.08ZM204.781 2.68048C205.707 3.05103 206.484 3.6727 207.116 4.57979L208.757 3.43621C207.917 2.23129 206.838 1.34897 205.524 0.823523L204.781 2.68048ZM207.128 4.59617C207.792 5.50926 208.324 6.76198 208.688 8.40093L210.641 7.96707C210.237 6.15002 209.617 4.61874 208.745 3.41983L207.128 4.59617ZM208.692 8.41805C209.084 10.044 209.288 12.1035 209.288 14.616H211.288C211.288 12.0085 211.077 9.78002 210.637 7.94995L208.692 8.41805ZM209.288 14.616V19.416H211.288V14.616H209.288ZM209.288 19.416C209.288 23.9816 208.526 27.1778 207.16 29.1705L208.809 30.3015C210.515 27.8142 211.288 24.1304 211.288 19.416H209.288ZM207.164 29.1649C205.832 31.0791 203.929 32.048 201.312 32.048V34.048C204.52 34.048 207.065 32.8089 208.805 30.3071L207.164 29.1649ZM201.312 32.048C198.696 32.048 196.793 31.0791 195.461 29.1649L193.82 30.3071C195.56 32.8089 198.105 34.048 201.312 34.048V32.048ZM195.465 29.1705C194.099 27.1778 193.337 23.9816 193.337 19.416H191.337C191.337 24.1304 192.11 27.8142 193.816 30.3015L195.465 29.1705ZM193.337 19.416V14.616H191.337V19.416H193.337ZM193.337 14.616C193.337 12.1651 193.526 10.1486 193.888 8.54883L191.937 8.10717C191.531 9.89944 191.337 12.0749 191.337 14.616H193.337ZM193.885 8.56205C194.282 6.91219 194.818 5.6468 195.461 4.72379L193.82 3.58021C192.991 4.7692 192.375 6.28781 191.94 8.09395L193.885 8.56205ZM195.457 4.72868C196.129 3.77723 196.932 3.1196 197.866 2.71914L197.079 0.880853C195.773 1.4404 194.688 2.35077 193.824 3.57532L195.457 4.72868ZM197.866 2.71914C198.841 2.30128 199.984 2.08 201.312 2.08V0.079999C199.761 0.079999 198.344 0.338721 197.079 0.880853L197.866 2.71914ZM236.276 1.512H235.276V2.512H236.276V1.512ZM240.404 1.512H241.404V0.511999H240.404V1.512ZM240.404 32.232V33.232H241.404V32.232H240.404ZM236.372 32.232V31.232H235.372V32.232H236.372ZM236.372 33H235.372V34H236.372V33ZM249.188 33V34H250.188V33H249.188ZM249.188 32.232H250.188V31.232H249.188V32.232ZM245.06 32.232H244.06V33.232H245.06V32.232ZM245.06 16.392V15.392H244.06V16.392H245.06ZM250.532 16.728L250.058 17.6085L250.085 17.6231L250.113 17.636L250.532 16.728ZM251.492 17.592L250.628 18.0959L250.643 18.1218L250.66 18.1467L251.492 17.592ZM252.068 18.984L253.041 18.755V18.755L252.068 18.984ZM252.452 20.808L251.47 20.9951L251.472 21.0063L251.474 21.0175L252.452 20.808ZM252.452 11.208L251.474 10.9985L251.472 11.0097L251.47 11.0209L252.452 11.208ZM252.068 13.032L253.041 13.261V13.261L252.068 13.032ZM251.492 14.424L250.66 13.8693L250.643 13.8942L250.628 13.9201L251.492 14.424ZM250.532 15.336L250.951 16.244L250.979 16.2311L251.006 16.2165L250.532 15.336ZM245.06 15.624H244.06V16.624H245.06V15.624ZM245.06 1.512V0.511999H244.06V1.512H245.06ZM255.092 2.328L254.498 3.13217L254.509 3.14071L254.521 3.1489L255.092 2.328ZM256.868 4.296L255.995 4.7846L256 4.79227L256.004 4.79987L256.868 4.296ZM257.828 6.792L256.85 7.00153L256.855 7.02235L256.86 7.04296L257.828 6.792ZM258.212 9.144H259.212V9.12128L259.211 9.09859L258.212 9.144ZM236.276 0.743998V-0.256002H235.276V0.743998H236.276ZM236.276 2.512H240.404V0.511999H236.276V2.512ZM239.404 1.512V32.232H241.404V1.512H239.404ZM240.404 31.232H236.372V33.232H240.404V31.232ZM235.372 32.232V33H237.372V32.232H235.372ZM236.372 34H249.188V32H236.372V34ZM250.188 33V32.232H248.188V33H250.188ZM249.188 31.232H245.06V33.232H249.188V31.232ZM246.06 32.232V16.392H244.06V32.232H246.06ZM245.06 17.392H248.852V15.392H245.06V17.392ZM248.852 17.392C249.465 17.392 249.842 17.4921 250.058 17.6085L251.006 15.8475C250.39 15.5159 249.647 15.392 248.852 15.392V17.392ZM250.113 17.636C250.349 17.7448 250.511 17.8947 250.628 18.0959L252.356 17.0881C252.025 16.5213 251.547 16.0952 250.951 15.82L250.113 17.636ZM250.66 18.1467C250.837 18.413 250.988 18.7614 251.095 19.213L253.041 18.755C252.892 18.1186 252.659 17.539 252.324 17.0373L250.66 18.1467ZM251.095 19.213C251.219 19.7405 251.344 20.3342 251.47 20.9951L253.434 20.6209C253.304 19.9378 253.173 19.3155 253.041 18.755L251.095 19.213ZM251.474 21.0175C251.53 21.2769 251.612 21.5631 251.752 21.8081C251.879 22.0302 252.214 22.48 252.836 22.48V20.48C253.049 20.48 253.222 20.5602 253.336 20.6486C253.436 20.7267 253.48 20.8019 253.488 20.8159C253.5 20.8369 253.47 20.7871 253.43 20.5985L251.474 21.0175ZM252.836 22.48C253.076 22.48 253.327 22.4109 253.548 22.2517C253.758 22.1 253.884 21.907 253.96 21.7431C254.1 21.4403 254.124 21.1095 254.124 20.856H252.124C252.124 20.9241 252.12 20.9622 252.118 20.9769C252.115 20.9948 252.117 20.9629 252.144 20.9049C252.172 20.845 252.238 20.73 252.377 20.6303C252.525 20.5231 252.692 20.48 252.836 20.48V22.48ZM254.124 20.856V11.112H252.124V20.856H254.124ZM254.124 11.112C254.124 10.8689 254.099 10.5377 253.946 10.2328C253.863 10.0662 253.728 9.88111 253.517 9.73995C253.299 9.59462 253.059 9.536 252.836 9.536V11.536C252.709 11.536 252.553 11.5014 252.407 11.404C252.268 11.3109 252.193 11.1978 252.158 11.1272C252.124 11.0605 252.119 11.0179 252.12 11.0244C252.12 11.0282 252.124 11.055 252.124 11.112H254.124ZM252.836 9.536C252.214 9.536 251.879 9.98577 251.752 10.2079C251.612 10.4529 251.53 10.7391 251.474 10.9985L253.43 11.4175C253.47 11.2289 253.5 11.1791 253.488 11.2001C253.48 11.2141 253.436 11.2893 253.336 11.3674C253.222 11.4558 253.049 11.536 252.836 11.536V9.536ZM251.47 11.0209C251.344 11.6818 251.219 12.2755 251.095 12.803L253.041 13.261C253.173 12.7005 253.304 12.0782 253.434 11.3951L251.47 11.0209ZM251.095 12.803C250.988 13.2546 250.837 13.603 250.66 13.8693L252.324 14.9787C252.659 14.477 252.892 13.8974 253.041 13.261L251.095 12.803ZM250.628 13.9201C250.503 14.135 250.322 14.3131 250.058 14.4555L251.006 16.2165C251.574 15.9109 252.033 15.481 252.356 14.9279L250.628 13.9201ZM250.113 14.428C249.88 14.5357 249.481 14.624 248.852 14.624V16.624C249.631 16.624 250.352 16.5203 250.951 16.244L250.113 14.428ZM248.852 14.624H245.06V16.624H248.852V14.624ZM246.06 15.624V1.512H244.06V15.624H246.06ZM245.06 2.512H252.356V0.511999H245.06V2.512ZM252.356 2.512C253.272 2.512 253.964 2.73804 254.498 3.13217L255.686 1.52382C254.748 0.829956 253.616 0.511999 252.356 0.511999V2.512ZM254.521 3.1489C255.13 3.57239 255.62 4.11367 255.995 4.7846L257.741 3.80739C257.22 2.87832 256.526 2.1076 255.663 1.50709L254.521 3.1489ZM256.004 4.79987C256.397 5.47362 256.68 6.20585 256.85 7.00153L258.806 6.58247C258.592 5.58615 258.235 4.65438 257.732 3.79213L256.004 4.79987ZM256.86 7.04296C257.071 7.85659 257.185 8.5703 257.213 9.18941L259.211 9.09859C259.175 8.30969 259.033 7.45541 258.796 6.54104L256.86 7.04296ZM257.212 9.144C257.212 9.43046 257.247 9.80713 257.44 10.1441C257.68 10.5647 258.106 10.816 258.596 10.816V8.816C258.682 8.816 258.805 8.83621 258.932 8.91022C259.058 8.984 259.135 9.08022 259.176 9.15186C259.214 9.21738 259.22 9.25951 259.218 9.25089C259.217 9.2441 259.212 9.2113 259.212 9.144H257.212ZM258.596 10.816C258.812 10.816 259.049 10.7637 259.269 10.6273C259.487 10.4925 259.634 10.3101 259.728 10.1341C259.902 9.81202 259.932 9.45705 259.932 9.192H257.932C257.932 9.25395 257.928 9.28342 257.927 9.28834C257.925 9.29552 257.932 9.25259 257.968 9.1859C258.006 9.11389 258.083 9.00947 258.217 8.92673C258.353 8.84226 258.492 8.816 258.596 8.816V10.816ZM259.932 9.192V1.896H257.932V9.192H259.932ZM259.932 1.896C259.932 1.34723 259.787 0.754537 259.325 0.310612C258.87 -0.126004 258.276 -0.256002 257.732 -0.256002V1.744C257.988 1.744 257.994 1.806 257.939 1.75338C257.915 1.72944 257.909 1.71009 257.912 1.72001C257.918 1.7352 257.932 1.78796 257.932 1.896H259.932ZM257.732 -0.256002H236.276V1.744H257.732V-0.256002ZM235.276 0.743998V1.512H237.276V0.743998H235.276ZM292.573 1.512V2.512H293.573V1.512H292.573ZM292.573 0.743998H293.573V-0.256002H292.573V0.743998ZM279.661 0.743998V-0.256002H278.661V0.743998H279.661ZM279.661 1.512H278.661V2.512H279.661V1.512ZM283.789 1.512H284.789V0.511999H283.789V1.512ZM283.789 32.232V33.232H284.789V32.232H283.789ZM279.661 32.232V31.232H278.661V32.232H279.661ZM279.661 33H278.661V34H279.661V33ZM292.573 33V34H293.573V33H292.573ZM292.573 32.232H293.573V31.232H292.573V32.232ZM288.445 32.232H287.445V33.232H288.445V32.232ZM288.445 1.512V0.511999H287.445V1.512H288.445ZM293.573 1.512V0.743998H291.573V1.512H293.573ZM292.573 -0.256002H279.661V1.744H292.573V-0.256002ZM278.661 0.743998V1.512H280.661V0.743998H278.661ZM279.661 2.512H283.789V0.511999H279.661V2.512ZM282.789 1.512V32.232H284.789V1.512H282.789ZM283.789 31.232H279.661V33.232H283.789V31.232ZM278.661 32.232V33H280.661V32.232H278.661ZM279.661 34H292.573V32H279.661V34ZM293.573 33V32.232H291.573V33H293.573ZM292.573 31.232H288.445V33.232H292.573V31.232ZM289.445 32.232V1.512H287.445V32.232H289.445ZM288.445 2.512H292.573V0.511999H288.445V2.512ZM312.515 32.232V31.232H311.515V32.232H312.515ZM312.515 33H311.515V34H312.515V33ZM323.171 33V34H324.171V33H323.171ZM323.171 32.232H324.171V31.232H323.171V32.232ZM317.507 32.232L316.557 31.9217L316.129 33.232H317.507V32.232ZM320.531 22.968V21.968H319.806L319.581 22.6577L320.531 22.968ZM330.179 22.968L331.127 22.6488L330.898 21.968H330.179V22.968ZM333.299 32.232V33.232H334.691L334.247 31.9128L333.299 32.232ZM328.355 32.232V31.232H327.355V32.232H328.355ZM328.355 33H327.355V34H328.355V33ZM342.419 33V34H343.419V33H342.419ZM342.419 32.232H343.419V31.232H342.419V32.232ZM338.243 32.232L337.294 32.5448L337.52 33.232H338.243V32.232ZM327.731 0.311997L328.681 -0.000800133L328.455 -0.688003H327.731V0.311997ZM327.155 0.311997V-0.688003H326.432L326.206 -0.000800133L327.155 0.311997ZM316.643 32.232V33.232H317.367L317.593 32.5448L316.643 32.232ZM325.331 8.472L326.279 8.15378L325.321 5.29972L324.381 8.15976L325.331 8.472ZM329.939 22.2V23.2H331.33L330.887 21.8818L329.939 22.2ZM320.819 22.2L319.869 21.8878L319.438 23.2H320.819V22.2ZM311.515 32.232V33H313.515V32.232H311.515ZM312.515 34H323.171V32H312.515V34ZM324.171 33V32.232H322.171V33H324.171ZM323.171 31.232H317.507V33.232H323.171V31.232ZM318.458 32.5423L321.482 23.2783L319.581 22.6577L316.557 31.9217L318.458 32.5423ZM320.531 23.968H330.179V21.968H320.531V23.968ZM329.232 23.2872L332.352 32.5512L334.247 31.9128L331.127 22.6488L329.232 23.2872ZM333.299 31.232H328.355V33.232H333.299V31.232ZM327.355 32.232V33H329.355V32.232H327.355ZM328.355 34H342.419V32H328.355V34ZM343.419 33V32.232H341.419V33H343.419ZM342.419 31.232H338.243V33.232H342.419V31.232ZM339.193 31.9192L328.681 -0.000800133L326.782 0.624795L337.294 32.5448L339.193 31.9192ZM327.731 -0.688003H327.155V1.312H327.731V-0.688003ZM326.206 -0.000800133L315.694 31.9192L317.593 32.5448L328.105 0.624795L326.206 -0.000800133ZM316.643 31.232H312.515V33.232H316.643V31.232ZM324.383 8.79021L328.991 22.5182L330.887 21.8818L326.279 8.15378L324.383 8.79021ZM329.939 21.2H320.819V23.2H329.939V21.2ZM321.769 22.5122L326.281 8.78424L324.381 8.15976L319.869 21.8878L321.769 22.5122Z" fill="white"/>
</svg>
